<mxfile host="app.diagrams.net" modified="2021-03-20T18:29:17.360Z" agent="5.0 (Windows NT 10.0; Win64; x64) AppleWebKit/537.36 (KHTML, like Gecko) Chrome/87.0.4280.141 Safari/537.36 OPR/73.0.3856.415" etag="P3xnAlBR1w_8QtJyov4T" version="14.4.9" type="github">
  <diagram id="jOzzbulSd4satgvKytSN" name="Page-1">
    <mxGraphModel dx="782" dy="746" grid="1" gridSize="10" guides="1" tooltips="1" connect="1" arrows="1" fold="1" page="1" pageScale="1" pageWidth="3300" pageHeight="4681" math="0" shadow="0">
      <root>
        <mxCell id="0" />
        <mxCell id="1" parent="0" />
        <mxCell id="uNq3XDhy8IfwDr__WaqW-118" value="" style="rounded=0;whiteSpace=wrap;html=1;" vertex="1" parent="1">
          <mxGeometry x="302.5" y="30" width="435" height="130" as="geometry" />
        </mxCell>
        <mxCell id="uNq3XDhy8IfwDr__WaqW-108" value="" style="rounded=0;whiteSpace=wrap;html=1;" vertex="1" parent="1">
          <mxGeometry x="750" y="410" width="150" height="130" as="geometry" />
        </mxCell>
        <mxCell id="uNq3XDhy8IfwDr__WaqW-32" value="Utils" style="text;html=1;strokeColor=none;fillColor=none;align=center;verticalAlign=middle;whiteSpace=wrap;rounded=0;" vertex="1" parent="1">
          <mxGeometry x="250" y="350" width="40" height="20" as="geometry" />
        </mxCell>
        <mxCell id="uNq3XDhy8IfwDr__WaqW-33" value="" style="rounded=0;whiteSpace=wrap;html=1;" vertex="1" parent="1">
          <mxGeometry x="140" y="375" width="150" height="130" as="geometry" />
        </mxCell>
        <mxCell id="uNq3XDhy8IfwDr__WaqW-20" value="" style="rounded=0;whiteSpace=wrap;html=1;" vertex="1" parent="1">
          <mxGeometry x="295" y="400" width="435" height="160" as="geometry" />
        </mxCell>
        <mxCell id="uNq3XDhy8IfwDr__WaqW-23" style="edgeStyle=orthogonalEdgeStyle;rounded=0;orthogonalLoop=1;jettySize=auto;html=1;exitX=0.5;exitY=1;exitDx=0;exitDy=0;" edge="1" parent="1" source="uNq3XDhy8IfwDr__WaqW-1" target="uNq3XDhy8IfwDr__WaqW-22">
          <mxGeometry relative="1" as="geometry" />
        </mxCell>
        <mxCell id="uNq3XDhy8IfwDr__WaqW-30" style="edgeStyle=orthogonalEdgeStyle;rounded=0;orthogonalLoop=1;jettySize=auto;html=1;exitX=0;exitY=0.5;exitDx=0;exitDy=0;" edge="1" parent="1" source="uNq3XDhy8IfwDr__WaqW-1" target="uNq3XDhy8IfwDr__WaqW-28">
          <mxGeometry relative="1" as="geometry" />
        </mxCell>
        <mxCell id="uNq3XDhy8IfwDr__WaqW-111" style="edgeStyle=orthogonalEdgeStyle;rounded=0;orthogonalLoop=1;jettySize=auto;html=1;exitX=1;exitY=0.5;exitDx=0;exitDy=0;entryX=0;entryY=0.75;entryDx=0;entryDy=0;" edge="1" parent="1" source="uNq3XDhy8IfwDr__WaqW-1" target="uNq3XDhy8IfwDr__WaqW-109">
          <mxGeometry relative="1" as="geometry" />
        </mxCell>
        <mxCell id="uNq3XDhy8IfwDr__WaqW-1" value="SignUpController" style="rounded=0;whiteSpace=wrap;html=1;" vertex="1" parent="1">
          <mxGeometry x="452.5" y="410" width="120" height="60" as="geometry" />
        </mxCell>
        <mxCell id="uNq3XDhy8IfwDr__WaqW-2" value="Express" style="rounded=0;whiteSpace=wrap;html=1;" vertex="1" parent="1">
          <mxGeometry x="452.5" y="680" width="120" height="60" as="geometry" />
        </mxCell>
        <mxCell id="uNq3XDhy8IfwDr__WaqW-3" value="MongoDb" style="rounded=0;whiteSpace=wrap;html=1;" vertex="1" parent="1">
          <mxGeometry x="765" y="65" width="120" height="60" as="geometry" />
        </mxCell>
        <mxCell id="uNq3XDhy8IfwDr__WaqW-4" value="BCrypt&lt;br&gt;" style="rounded=0;whiteSpace=wrap;html=1;" vertex="1" parent="1">
          <mxGeometry x="140" y="65" width="120" height="60" as="geometry" />
        </mxCell>
        <mxCell id="uNq3XDhy8IfwDr__WaqW-5" value="Validator&lt;br&gt;" style="rounded=0;whiteSpace=wrap;html=1;" vertex="1" parent="1">
          <mxGeometry y="410" width="120" height="60" as="geometry" />
        </mxCell>
        <mxCell id="uNq3XDhy8IfwDr__WaqW-24" style="edgeStyle=orthogonalEdgeStyle;rounded=0;orthogonalLoop=1;jettySize=auto;html=1;exitX=0.5;exitY=0;exitDx=0;exitDy=0;entryX=0.5;entryY=1;entryDx=0;entryDy=0;" edge="1" parent="1" source="uNq3XDhy8IfwDr__WaqW-19" target="uNq3XDhy8IfwDr__WaqW-22">
          <mxGeometry relative="1" as="geometry" />
        </mxCell>
        <mxCell id="uNq3XDhy8IfwDr__WaqW-25" style="edgeStyle=orthogonalEdgeStyle;rounded=0;orthogonalLoop=1;jettySize=auto;html=1;exitX=0.5;exitY=1;exitDx=0;exitDy=0;entryX=0.5;entryY=0;entryDx=0;entryDy=0;" edge="1" parent="1" source="uNq3XDhy8IfwDr__WaqW-19" target="uNq3XDhy8IfwDr__WaqW-2">
          <mxGeometry relative="1" as="geometry" />
        </mxCell>
        <mxCell id="uNq3XDhy8IfwDr__WaqW-19" value="ExpressRouteAdapter" style="rounded=0;whiteSpace=wrap;html=1;" vertex="1" parent="1">
          <mxGeometry x="430" y="584.5" width="180" height="60" as="geometry" />
        </mxCell>
        <mxCell id="uNq3XDhy8IfwDr__WaqW-21" value="Presentation" style="text;html=1;strokeColor=none;fillColor=none;align=center;verticalAlign=middle;whiteSpace=wrap;rounded=0;" vertex="1" parent="1">
          <mxGeometry x="670" y="380" width="40" height="20" as="geometry" />
        </mxCell>
        <mxCell id="uNq3XDhy8IfwDr__WaqW-22" value="Controller" style="rounded=0;whiteSpace=wrap;html=1;dashed=1;" vertex="1" parent="1">
          <mxGeometry x="452.5" y="490" width="120" height="60" as="geometry" />
        </mxCell>
        <mxCell id="uNq3XDhy8IfwDr__WaqW-27" style="edgeStyle=orthogonalEdgeStyle;rounded=0;orthogonalLoop=1;jettySize=auto;html=1;exitX=0;exitY=0.5;exitDx=0;exitDy=0;entryX=1;entryY=0.5;entryDx=0;entryDy=0;" edge="1" parent="1" source="uNq3XDhy8IfwDr__WaqW-26" target="uNq3XDhy8IfwDr__WaqW-5">
          <mxGeometry relative="1" as="geometry" />
        </mxCell>
        <mxCell id="uNq3XDhy8IfwDr__WaqW-29" style="edgeStyle=orthogonalEdgeStyle;rounded=0;orthogonalLoop=1;jettySize=auto;html=1;exitX=1;exitY=0.5;exitDx=0;exitDy=0;entryX=0;entryY=0.5;entryDx=0;entryDy=0;" edge="1" parent="1" source="uNq3XDhy8IfwDr__WaqW-26" target="uNq3XDhy8IfwDr__WaqW-28">
          <mxGeometry relative="1" as="geometry" />
        </mxCell>
        <mxCell id="uNq3XDhy8IfwDr__WaqW-26" value="EmailValidatorSdapt" style="rounded=0;whiteSpace=wrap;html=1;" vertex="1" parent="1">
          <mxGeometry x="150" y="410" width="130" height="60" as="geometry" />
        </mxCell>
        <mxCell id="uNq3XDhy8IfwDr__WaqW-28" value="EmailValidator" style="rounded=0;whiteSpace=wrap;html=1;dashed=1;" vertex="1" parent="1">
          <mxGeometry x="310" y="410" width="120" height="60" as="geometry" />
        </mxCell>
        <mxCell id="uNq3XDhy8IfwDr__WaqW-107" value="Domain" style="text;html=1;strokeColor=none;fillColor=none;align=center;verticalAlign=middle;whiteSpace=wrap;rounded=0;" vertex="1" parent="1">
          <mxGeometry x="860" y="380" width="40" height="20" as="geometry" />
        </mxCell>
        <mxCell id="uNq3XDhy8IfwDr__WaqW-109" value="AddAccount" style="rounded=0;whiteSpace=wrap;html=1;dashed=1;" vertex="1" parent="1">
          <mxGeometry x="765" y="430" width="120" height="60" as="geometry" />
        </mxCell>
        <mxCell id="uNq3XDhy8IfwDr__WaqW-113" value="" style="rounded=0;whiteSpace=wrap;html=1;" vertex="1" parent="1">
          <mxGeometry x="302.5" y="180" width="435" height="160" as="geometry" />
        </mxCell>
        <mxCell id="uNq3XDhy8IfwDr__WaqW-114" value="Data" style="text;html=1;strokeColor=none;fillColor=none;align=center;verticalAlign=middle;whiteSpace=wrap;rounded=0;" vertex="1" parent="1">
          <mxGeometry x="677.5" y="160" width="40" height="20" as="geometry" />
        </mxCell>
        <mxCell id="uNq3XDhy8IfwDr__WaqW-116" style="edgeStyle=orthogonalEdgeStyle;rounded=0;orthogonalLoop=1;jettySize=auto;html=1;exitX=0.5;exitY=1;exitDx=0;exitDy=0;entryX=0.5;entryY=0;entryDx=0;entryDy=0;" edge="1" parent="1" source="uNq3XDhy8IfwDr__WaqW-115" target="uNq3XDhy8IfwDr__WaqW-109">
          <mxGeometry relative="1" as="geometry" />
        </mxCell>
        <mxCell id="uNq3XDhy8IfwDr__WaqW-125" style="edgeStyle=orthogonalEdgeStyle;rounded=0;orthogonalLoop=1;jettySize=auto;html=1;exitX=0;exitY=0.75;exitDx=0;exitDy=0;entryX=0.5;entryY=1;entryDx=0;entryDy=0;" edge="1" parent="1" source="uNq3XDhy8IfwDr__WaqW-115" target="uNq3XDhy8IfwDr__WaqW-122">
          <mxGeometry relative="1" as="geometry" />
        </mxCell>
        <mxCell id="uNq3XDhy8IfwDr__WaqW-129" style="edgeStyle=orthogonalEdgeStyle;rounded=0;orthogonalLoop=1;jettySize=auto;html=1;exitX=1;exitY=0.5;exitDx=0;exitDy=0;entryX=0.5;entryY=1;entryDx=0;entryDy=0;" edge="1" parent="1" source="uNq3XDhy8IfwDr__WaqW-115" target="uNq3XDhy8IfwDr__WaqW-128">
          <mxGeometry relative="1" as="geometry" />
        </mxCell>
        <mxCell id="uNq3XDhy8IfwDr__WaqW-115" value="DbAddAccount" style="rounded=0;whiteSpace=wrap;html=1;" vertex="1" parent="1">
          <mxGeometry x="452.5" y="230" width="120" height="60" as="geometry" />
        </mxCell>
        <mxCell id="uNq3XDhy8IfwDr__WaqW-117" value="Infra" style="text;html=1;strokeColor=none;fillColor=none;align=center;verticalAlign=middle;whiteSpace=wrap;rounded=0;" vertex="1" parent="1">
          <mxGeometry x="697.5" y="10" width="40" height="20" as="geometry" />
        </mxCell>
        <mxCell id="uNq3XDhy8IfwDr__WaqW-121" style="edgeStyle=orthogonalEdgeStyle;rounded=0;orthogonalLoop=1;jettySize=auto;html=1;exitX=0;exitY=0.5;exitDx=0;exitDy=0;entryX=1;entryY=0.5;entryDx=0;entryDy=0;" edge="1" parent="1" source="uNq3XDhy8IfwDr__WaqW-120" target="uNq3XDhy8IfwDr__WaqW-4">
          <mxGeometry relative="1" as="geometry" />
        </mxCell>
        <mxCell id="uNq3XDhy8IfwDr__WaqW-123" style="edgeStyle=orthogonalEdgeStyle;rounded=0;orthogonalLoop=1;jettySize=auto;html=1;exitX=0.5;exitY=1;exitDx=0;exitDy=0;entryX=0.5;entryY=0;entryDx=0;entryDy=0;" edge="1" parent="1" source="uNq3XDhy8IfwDr__WaqW-120" target="uNq3XDhy8IfwDr__WaqW-122">
          <mxGeometry relative="1" as="geometry" />
        </mxCell>
        <mxCell id="uNq3XDhy8IfwDr__WaqW-120" value="BcryptAdapter" style="rounded=0;whiteSpace=wrap;html=1;" vertex="1" parent="1">
          <mxGeometry x="322.5" y="65" width="130" height="60" as="geometry" />
        </mxCell>
        <mxCell id="uNq3XDhy8IfwDr__WaqW-122" value="Encrypter&lt;br&gt;" style="rounded=0;whiteSpace=wrap;html=1;dashed=1;" vertex="1" parent="1">
          <mxGeometry x="310" y="200" width="120" height="60" as="geometry" />
        </mxCell>
        <mxCell id="uNq3XDhy8IfwDr__WaqW-127" style="edgeStyle=orthogonalEdgeStyle;rounded=0;orthogonalLoop=1;jettySize=auto;html=1;exitX=1;exitY=0.5;exitDx=0;exitDy=0;entryX=0;entryY=0.5;entryDx=0;entryDy=0;" edge="1" parent="1" source="uNq3XDhy8IfwDr__WaqW-126" target="uNq3XDhy8IfwDr__WaqW-3">
          <mxGeometry relative="1" as="geometry" />
        </mxCell>
        <mxCell id="uNq3XDhy8IfwDr__WaqW-130" style="edgeStyle=orthogonalEdgeStyle;rounded=0;orthogonalLoop=1;jettySize=auto;html=1;exitX=0.5;exitY=1;exitDx=0;exitDy=0;entryX=0.5;entryY=0;entryDx=0;entryDy=0;" edge="1" parent="1" source="uNq3XDhy8IfwDr__WaqW-126" target="uNq3XDhy8IfwDr__WaqW-128">
          <mxGeometry relative="1" as="geometry" />
        </mxCell>
        <mxCell id="uNq3XDhy8IfwDr__WaqW-126" value="AddUserMongoRepo" style="rounded=0;whiteSpace=wrap;html=1;" vertex="1" parent="1">
          <mxGeometry x="567.5" y="65" width="130" height="60" as="geometry" />
        </mxCell>
        <mxCell id="uNq3XDhy8IfwDr__WaqW-128" value="AddUserRepo" style="rounded=0;whiteSpace=wrap;html=1;dashed=1;" vertex="1" parent="1">
          <mxGeometry x="610" y="200" width="120" height="60" as="geometry" />
        </mxCell>
      </root>
    </mxGraphModel>
  </diagram>
</mxfile>
